Coordinates
version=1
nRows=17
nColumns=40
inDegrees=yes

Units are S.I. units (second, meters, Newtons, ...)
Angles are in degrees.

endheader
time	pelvis_tilt	pelvis_list	pelvis_rotation	pelvis_tx	pelvis_ty	pelvis_tz	hip_flexion_r	hip_adduction_r	hip_rotation_r	knee_angle_r	knee_angle_r_beta	ankle_angle_r	subtalar_angle_r	mtp_angle_r	hip_flexion_l	hip_adduction_l	hip_rotation_l	knee_angle_l	knee_angle_l_beta	ankle_angle_l	subtalar_angle_l	mtp_angle_l	lumbar_extension	lumbar_bending	lumbar_rotation	arm_flex_r	arm_add_r	arm_rot_r	elbow_flex_r	pro_sup_r	wrist_flex_r	wrist_dev_r	arm_flex_l	arm_add_l	arm_rot_l	elbow_flex_l	pro_sup_l	wrist_flex_l	wrist_dev_l
      6.78314286	     -2.85590017	     -4.95691599	     -2.78562446	      0.82810782	      0.93645468	      0.43519635	     32.24928984	     -2.56468495	     -7.19940933	     52.39710132	     52.39710132	      1.68463585	    -12.99855088	     -1.20131564	      6.04652024	     -2.92776652	     -7.59761753	     16.62358697	     16.62358697	     15.64669079	    -10.37047428	      1.29597502	     -9.51057493	      8.11448032	      3.27002961	     -9.06531411	    -11.79724152	     -0.58474328	     26.46687838	     46.10220563	      0.00000000	      0.00000000	     13.17921861	    -13.24731330	     -3.58708236	     81.03609890	     47.45418064	      0.00000000	      0.00000000
      6.79628571	     -2.95686273	     -5.02233594	     -2.90501862	      0.82704451	      0.93605697	      0.43525362	     32.23044123	     -2.35253438	     -7.78506251	     48.19670587	     48.19670587	      2.04205234	    -12.47894769	     -0.87312554	      5.39802389	     -2.95890215	     -7.80413058	     16.14767866	     16.14767866	     15.90866363	    -10.06537448	      1.14302996	     -9.53443073	      8.15190611	      3.30386597	     -9.83101953	    -11.53229504	     -0.48828069	     26.44766523	     46.08890792	      0.00000000	      0.00000000	     14.04239167	    -13.11073040	     -3.76255402	     82.17638180	     47.49428825	      0.00000000	      0.00000000
      6.80942857	     -2.96679605	     -5.05902757	     -3.06734972	      0.82619277	      0.93568185	      0.43552692	     31.87174011	     -2.08312193	     -8.34104549	     43.55523936	     43.55523936	      2.13040000	    -11.57995689	     -1.27238848	      4.56818878	     -2.99672667	     -8.28336548	     15.55912466	     15.55912466	     16.11402834	     -9.37421860	      0.66689517	     -9.69820823	      8.09382630	      3.40480704	    -10.71695342	    -11.33787995	     -0.35680660	     27.10469964	     46.04409783	      0.00000000	      0.00000000	     14.63490441	    -12.88741359	     -4.14550154	     84.04030484	     47.57398391	      0.00000000	      0.00000000
      6.82257143	     -3.06711131	     -5.11136718	     -3.18139877	      0.82542699	      0.93504779	      0.43584407	     31.38696605	     -1.77795748	     -9.03083794	     38.58967740	     38.58967740	      2.15672304	    -10.17311172	     -1.66710602	      3.89691098	     -3.04125718	     -8.60420720	     15.08165720	     15.08165720	     16.33098027	     -8.91097467	      0.22001401	     -9.69392337	      8.08793219	      3.33845525	    -11.38864040	    -11.19982612	     -0.21546031	     27.66960474	     46.00570685	      0.00000000	      0.00000000	     15.20698007	    -12.74379450	     -4.44185180	     85.14406749	     47.63510162	      0.00000000	      0.00000000
      6.83571429	     -3.27436123	     -5.17829878	     -3.27969787	      0.82470738	      0.93415445	      0.43627542	     30.86444586	     -1.32359729	     -9.58007541	     33.46460526	     33.46460526	      2.23755063	     -8.49132265	     -1.14074981	      3.41612070	     -3.10139399	     -8.70450544	     14.75202717	     14.75202717	     16.58548196	     -8.71063991	      0.00424933	     -9.53252783	      8.17079783	      3.22902509	    -11.78197668	    -11.01493685	     -0.16781739	     27.78008296	     45.99443766	      0.00000000	      0.00000000	     15.77934365	    -12.68330255	     -4.50137813	     85.72527078	     47.65539740	      0.00000000	      0.00000000
      6.84885714	     -3.35736768	     -5.20206998	     -3.38389566	      0.82429470	      0.93331444	      0.43696911	     29.99697733	     -0.87883930	    -10.29190017	     28.18003681	     28.18003681	      2.13616270	     -6.15237627	     -0.49841721	      2.72609370	     -3.13248392	     -8.99061070	     14.32596244	     14.32596244	     16.86096117	     -8.33923938	     -0.28558532	     -9.51489560	      8.07459589	      3.18809925	    -12.13322724	    -10.86182905	     -0.15328098	     27.98577334	     45.98191129	      0.00000000	      0.00000000	     16.27776138	    -12.55884840	     -4.54600767	     86.35610832	     47.67652442	      0.00000000	      0.00000000
      6.86200000	     -3.35148529	     -5.17411850	     -3.47759416	      0.82423039	      0.93238454	      0.43769835	     28.94832751	     -0.45367259	    -11.05370119	     23.07642906	     23.07642906	      1.90428262	     -3.37806949	      0.39141883	      1.91514650	     -3.11046277	     -9.33637038	     13.90553966	     13.90553966	     17.17830464	     -7.79250581	     -0.68660131	     -9.52052096	      7.95946764	      3.13988167	    -12.40820761	    -10.75327994	     -0.18124550	     28.31921668	     45.96792621	      0.00000000	      0.00000000	     16.65968371	    -12.44669341	     -4.55957521	     86.90994157	     47.69422716	      0.00000000	      0.00000000
      6.87514286	     -3.28417337	     -5.07286677	     -3.54439433	      0.82441595	      0.93131178	      0.43851809	     27.86454817	     -0.10467847	    -11.94173246	     18.44090784	     18.44090784	      1.64523153	     -0.31636142	      1.69192734	      1.05582498	     -3.03006066	     -9.77940804	     13.54178346	     13.54178346	     17.49752421	     -7.10212342	     -1.18952415	     -9.58048214	      7.77875252	      3.06595717	    -12.57402101	    -10.64745810	     -0.25427371	     28.80550938	     45.95195724	      0.00000000	      0.00000000	     16.97497410	    -12.39097097	     -4.53207400	     87.32257171	     47.70900910	      0.00000000	      0.00000000
      6.88828571	     -3.26855171	     -4.96892624	     -3.61578185	      0.82476261	      0.93000179	      0.43951363	     27.08836289	      0.16915712	    -13.15490694	     14.84279227	     14.84279227	      2.12610783	      3.16859437	      5.35275901	      0.31452744	     -3.01605557	    -10.46621529	     13.32861708	     13.32861708	     17.82501239	     -6.04371391	     -2.09199608	     -9.54630493	      7.56386020	      3.07653975	    -12.93691645	    -10.56529097	     -0.56839093	     29.98720845	     45.92565662	      0.00000000	      0.00000000	     17.28173449	    -12.32401335	     -4.31888706	     87.50087566	     47.74350451	      0.00000000	      0.00000000
      6.90142857	     -3.27880257	     -4.86971680	     -3.66677710	      0.82528522	      0.92861812	      0.44068451	     26.31530713	      0.59949641	    -13.73702416	     11.62795794	     11.62795794	      1.54512270	      5.00181407	      6.74570572	     -0.41775644	     -2.93686881	    -10.61663175	     13.07907901	     13.07907901	     18.17025704	     -5.78291218	     -2.30041353	     -9.43000913	      7.37388259	      2.96169177	    -12.75163197	    -10.46576132	     -0.62430147	     30.17573011	     45.92410751	      0.00000000	      0.00000000	     17.38526437	    -12.30991357	     -4.14191393	     87.41323634	     47.74009290	      0.00000000	      0.00000000
      6.91457143	     -3.25472521	     -4.78984102	     -3.71611051	      0.82595233	      0.92726226	      0.44194541	     25.82129131	      0.86176006	    -14.86774672	      9.71771467	      9.71771467	      1.87594917	      7.26164978	      9.94079810	     -1.11025197	     -2.96902247	    -11.19284150	     13.03313334	     13.03313334	     18.66924409	     -4.83488431	     -2.69001862	     -9.32792427	      7.20895536	      3.03244069	    -12.59672049	    -10.35484296	     -1.04683268	     30.56187720	     45.94298062	      0.00000000	      0.00000000	     17.65227435	    -12.25899252	     -3.60985780	     86.85204017	     47.74154285	      0.00000000	      0.00000000
      6.92771429	     -3.35782883	     -4.58699250	     -3.75575623	      0.82660286	      0.92566156	      0.44326060	     25.61360584	      1.04118633	    -15.18953073	      8.56529419	      8.56529419	      1.41275837	      7.72958308	     10.33149457	     -1.60179906	     -2.81147686	    -11.25874451	     13.03975815	     13.03975815	     18.99322141	     -4.74578383	     -2.82068602	     -9.06246995	      6.88711874	      2.86678810	    -12.02207415	    -10.27495671	     -1.10375254	     30.81747866	     45.94121455	      0.00000000	      0.00000000	     17.53507287	    -12.11636083	     -3.40749685	     86.58655293	     47.72661105	      0.00000000	      0.00000000
      6.94085714	     -3.27910540	     -4.74405532	     -3.71663703	      0.82770031	      0.92452552	      0.44480227	     24.97408269	      1.52670984	    -15.90552409	      7.65932885	      7.65932885	      0.87752591	      8.26330572	     10.48776185	     -2.36060435	     -3.08557864	    -11.39380260	     13.03043676	     13.03043676	     19.45033320	     -4.37786622	     -2.94951862	     -8.98125856	      7.01424424	      2.56685654	    -11.51404859	    -10.35108863	     -1.26982493	     31.00984821	     45.94947388	      0.00000000	      0.00000000	     17.31584769	    -12.34901096	     -3.20049260	     85.77070907	     47.70394858	      0.00000000	      0.00000000
      6.95400000	     -3.28914942	     -4.75904649	     -3.68264047	      0.82882172	      0.92318439	      0.44634836	     24.71279219	      1.74728471	    -16.38364829	      7.77400276	      7.77400276	      0.44800058	      8.13250476	      9.70143056	     -2.89472686	     -3.26766409	    -11.75810520	     13.26291675	     13.26291675	     20.00680970	     -3.70876278	     -2.99420555	     -8.74273776	      6.99246751	      2.32822033	    -10.79420541	    -10.34582485	     -1.55882127	     31.18867667	     45.96858080	      0.00000000	      0.00000000	     17.18621537	    -12.43279486	     -2.80738724	     84.45957815	     47.66522398	      0.00000000	      0.00000000
      6.96714286	     -3.28713139	     -4.75656893	     -3.60147026	      0.83019777	      0.92176754	      0.44799678	     24.34606501	      1.95826226	    -16.39730457	      8.05315144	      8.05315144	     -1.10226597	      6.97158136	      5.18094064	     -3.29930425	     -3.51876317	    -12.26791383	     13.85985146	     13.85985146	     21.12641429	     -2.61122116	     -2.02107915	     -8.50874484	      6.93755568	      2.77976893	    -10.35986460	    -10.13060427	     -3.15161395	     31.19783197	     46.07892217	      0.00000000	      0.00000000	     17.50882865	    -12.14852618	     -1.61622104	     82.47502452	     47.60916488	      0.00000000	      0.00000000
      6.98028571	     -3.29729382	     -4.80989170	     -3.47648205	      0.83165719	      0.92054568	      0.44956676	     24.22211751	      2.05592526	    -16.45966659	      9.19558658	      9.19558658	     -1.17138546	      5.83577203	      4.29967437	     -3.76652812	     -3.73555180	    -12.21446873	     14.21942091	     14.21942091	     21.50433941	     -2.55912643	     -2.06202138	     -8.26156185	      6.97876531	      2.33809611	     -9.45787298	    -10.23869341	     -3.44999630	     31.56735143	     46.09035104	      0.00000000	      0.00000000	     16.93216663	    -12.20513428	     -1.36652918	     81.28916742	     47.57577793	      0.00000000	      0.00000000
      6.99342857	     -3.23453675	     -4.91446464	     -3.29538647	      0.83333487	      0.91949138	      0.45110511	     24.05645098	      2.14519633	    -16.37388522	     10.60685776	     10.60685776	     -1.17817132	      4.36814114	      3.16081747	     -4.24498735	     -4.03323875	    -12.13873039	     14.72970685	     14.72970685	     21.92164571	     -2.49091855	     -2.09311100	     -8.10281161	      7.10115820	      2.01392472	     -8.56187019	    -10.43770850	     -3.73613820	     31.87667866	     46.10342518	      0.00000000	      0.00000000	     16.43098946	    -12.30551137	     -1.11904769	     79.83098740	     47.53612045	      0.00000000	      0.00000000
